<?xml version="1.0" encoding="UTF-8"?>
<!DOCTYPE svg PUBLIC "-//W3C//DTD SVG 1.1//EN" "http://www.w3.org/Graphics/SVG/1.1/DTD/svg11.dtd">
<!-- Creator: CorelDRAW X7 -->
<svg xmlns="http://www.w3.org/2000/svg" xml:space="preserve" width="13.4054mm" height="12.3472mm" version="1.1" style="shape-rendering:geometricPrecision; text-rendering:geometricPrecision; image-rendering:optimizeQuality; fill-rule:evenodd; clip-rule:evenodd"
viewBox="0 0 1341 1235"
 xmlns:xlink="http://www.w3.org/1999/xlink">
 <defs>
  <style type="text/css">
   <![CDATA[
    .fil0 {fill:#05227A}
    .fil1 {fill:#FF9900}
   ]]>
  </style>
 </defs>
 <g id="Layer_x0020_1">
  <metadata id="CorelCorpID_0Corel-Layer"/>
  <g id="_1600527455408">
   <path class="fil0" d="M670 1235c-165,-141 -289,-272 -371,-393 -82,-121 -123,-233 -123,-336 0,-154 50,-277 149,-369 100,-91 215,-137 345,-137 131,0 246,46 345,137 100,92 149,215 149,369 0,103 -41,215 -123,336 -81,121 -158,222 -371,393z"/>
   <path class="fil1" d="M512 205l146 0 57 0 145 0 14 0 0 14 0 57 0 14 -14 0 -131 0 0 93c6,-10 13,-18 21,-25 24,-21 54,-31 94,-23l0 0 2 0 0 0c40,8 74,30 95,61 22,30 32,68 25,107l0 0 -1 2 0 0c-5,29 -20,55 -39,74 -14,14 -31,25 -49,33l99 76 12 9 -9 11 -34 42 -9 11 -11 -9 -196 -150 0 184 131 0 14 0 0 14 0 57 0 14 -14 0 -145 0 -57 0 -146 0 -14 0 0 -14 0 -57 0 -14 14 0 132 0 0 -199 -99 0c-16,25 -34,49 -53,73 -18,23 -38,46 -60,68l-6 6 -10 10 -10 -9 -7 -7 -30 -30 -6 -6 -10 -10 10 -10 6 -7c52,-52 95,-112 130,-171 48,-81 80,-158 97,-204l-84 0 -14 0 0 -14 0 -57 0 -14 14 0zm132 297l0 -95c-3,5 -6,11 -8,17 -12,25 -25,51 -40,78l48 0zm193 -92l-1 0 0 0c-18,-3 -31,0 -41,9 -12,11 -20,29 -24,51l0 0 0 3 0 0c-4,19 -4,37 2,51 6,12 16,21 34,24l0 0 1 0 0 0c21,4 40,-1 56,-11 16,-10 27,-26 31,-45l0 0 0 -1 0 0c4,-19 -1,-37 -11,-51 -11,-15 -27,-26 -47,-30l0 0z"/>
  </g>
 </g>
</svg>
